<?xml version="1.0" encoding="UTF-8" standalone="no"?>
<svg
   xmlns:dc="http://purl.org/dc/elements/1.1/"
   xmlns:cc="http://creativecommons.org/ns#"
   xmlns:rdf="http://www.w3.org/1999/02/22-rdf-syntax-ns#"
   xmlns:svg="http://www.w3.org/2000/svg"
   xmlns="http://www.w3.org/2000/svg"
   xmlns:sodipodi="http://sodipodi.sourceforge.net/DTD/sodipodi-0.dtd"
   xmlns:inkscape="http://www.inkscape.org/namespaces/inkscape"
   viewBox="0 0 236.03056 259.22733"
   height="40"
   width="40"
   id="svg2"
   version="1.1"
   sodipodi:docname="bioinfo_crop.svg"
   inkscape:version="0.92.3 (d244b95, 2018-08-02)">
  <sodipodi:namedview
     pagecolor="#ffffff"
     bordercolor="#666666"
     borderopacity="1"
     objecttolerance="10"
     gridtolerance="10"
     guidetolerance="10"
     inkscape:pageopacity="0"
     inkscape:pageshadow="2"
     inkscape:window-width="742"
     inkscape:window-height="480"
     id="namedview6"
     showgrid="false"
     inkscape:zoom="0.69208211"
     inkscape:cx="133.77395"
     inkscape:cy="104.58464"
     inkscape:window-x="67"
     inkscape:window-y="27"
     inkscape:window-maximized="0"
     inkscape:current-layer="svg2" />
  <metadata
     id="metadata8">
    <rdf:RDF>
      <cc:Work
         rdf:about="">
        <dc:format>image/svg+xml</dc:format>
        <dc:type
           rdf:resource="http://purl.org/dc/dcmitype/StillImage" />
        <dc:title />
      </cc:Work>
    </rdf:RDF>
  </metadata>
  <defs
     id="defs6" />
  <path
     id="path12"
     d="m 89.971486,257.45142 c -0.68238,-1.27504 -0.56245,-2.57685 0.39709,-4.31033 0.75611,-1.36596 1.3907,-3.2445 1.41018,-4.17454 0.064,-3.05509 -1.84862,-2.93391 -3.47981,0.22047 -1.84979,3.5771 -4.809502,3.67955 -5.307782,0.18373 -0.24984,-1.75289 0.35502,-2.50271 2.669832,-3.30966 5.42253,-1.8903 4.73698,-5.01447 -1.387172,-6.3215 -4.555364,-0.97222 -9.234883,-4.16519 -11.465026,-7.82292 -1.515759,-2.48604 -1.98764,-5.03821 -1.989306,-10.75914 -0.0025,-8.5002 1.959621,-13.66648 5.994708,-15.78432 3.801214,-1.99509 13.042106,-0.87556 15.249996,1.84753 2.50034,3.08379 2.18896,4.88868 -1.5,8.69472 -2.75704,2.84455 -3.25,4.0872 -3.25,8.19262 0,5.3487 1.31366,7.37669 7.90004,12.19585 4.796574,3.50958 7.930604,3.60152 12.183804,0.35745 3.56067,-2.71585 6.41616,-2.44743 6.41616,0.60314 0,1.04115 -0.3375,1.95044 -0.75,2.02063 -0.4125,0.0702 -1.7925,0.23519 -3.06666,0.36666 -3.39595,0.35041 -4.79113,2.06845 -3.21851,3.96334 0.70403,0.84831 2.06986,1.54238 3.03517,1.54238 2.15207,0 4.40815,2.53058 3.52707,3.9562 -1.1988,1.9397 -3.86708,1.06037 -6.69452,-2.2062 -2.64494,-3.05571 -2.89704,-3.14261 -4.21706,-1.45352 -1.5693,2.00805 -1.08799,5.33045 1.14682,7.91627 2.07919,6.93732 -4.192464,6.20607 -3.821554,-0.21275 0.17471,-2.86067 -2.37344,-6.90066 -3.58702,-5.68707 -0.44538,0.44538 -1.04468,3.13999 -1.33176,5.98801 -0.56042,5.55955 -2.96847,7.53608 -4.86469,3.99295 z M 224.83644,216.12287 c -0.0122,-0.29406 0.92572,-3.21906 2.08434,-6.5 3.97291,-11.25033 1.72649,-22.22152 -7.00025,-34.18818 -4.76292,-6.53122 -9.69739,-8.59104 -21.75861,-9.08282 -12.31517,-0.50213 -14.41922,0.10406 -28.84772,8.31128 -30.74073,17.48593 -48.08182,24.25721 -66.53605,25.98074 -15.725624,1.46869 -30.740061,-4.0319 -42.008291,-15.38989 -11.03602,-11.12393 -14.9313,-21.50502 -14.948105,-39.83734 -0.0042,-4.53248 -0.728989,-15.10748 -1.610743,-23.5 -1.785872,-16.9979 -1.428143,-24.068584 1.607333,-31.769644 8.866587,-22.494713 23.743434,-22.510653 34.393219,-0.0369 2.932641,6.18863 3.098341,7.17747 3.024211,18.047374 -0.0431,6.325 -0.26814,15.775 -0.5,21 -0.39919,8.9956 -0.26229,9.81207 2.578432,15.3776 3.57488,7.00392 14.817254,18.63619 20.777604,21.4982 6.46276,3.10326 15.44373,4.17729 25.51114,3.05086 10.79387,-1.20771 19.39246,-3.51483 39.07869,-10.48534 16.9173,-5.99009 23.53226,-6.77536 33.87663,-4.02153 12.99513,3.45951 20.38985,9.22723 25.32075,19.74962 3.23003,6.89281 3.43518,7.95764 3.43518,17.83059 0,8.99398 -0.33053,11.14544 -2.30449,15 -2.25253,4.39853 -6.12906,10.02835 -6.17327,8.96534 z M 58.8142,99.157526 c 2.268526,-2.26853 2.435434,-3.31787 0.964816,-6.06574 -1.17324,-2.19222 -5.863347,-2.63573 -7.764816,-0.73426 -1.682749,1.68275 -1.493618,5.36352 0.371429,7.22857 2.106753,2.106764 4.020852,1.979154 6.428571,-0.42857 z m 15.296406,-1.09522 c 1.60899,-2.57158 0.0064,-6.79068 -2.85193,-7.50807 -4.680522,-1.17474 -8.544317,5.10345 -5.199396,8.44837 1.659434,1.659434 6.800377,1.059034 8.051326,-0.9403 z m 40.850234,65.067104 c -2.94435,-0.42823 -5.74307,-1.16831 -6.21939,-1.64463 -1.42716,-1.42716 3.59032,-10.8575 7.27019,-13.66428 7.55044,-5.75899 18.93903,-9.09645 34.80256,-10.19898 5.225,-0.36315 9.8375,-0.86766 10.25,-1.12114 1.49395,-0.91805 0.7033,-4.29747 -1.25,-5.34285 -4.0084,-2.14523 -1.20224,-6 4.36784,-6 1.98315,0 2.56466,0.56794 2.81574,2.75 0.43594,3.78873 3.82642,3.71612 5.66566,-0.12132 1.09706,-2.28894 1.12094,-3.02907 0.11776,-3.64908 -1.61046,-0.99531 -0.54438,-3.82877 1.76032,-4.67866 0.97497,-0.35954 3.12268,-1.66152 4.77268,-2.89329 4.63968,-3.46364 15.10347,-5.84303 19.67391,-4.47369 2.17627,0.65202 3.96437,1.92636 4.33309,3.08809 0.77315,2.43597 4.69122,2.63687 6.97068,0.35741 0.89129,-0.89129 1.88578,-2.94677 2.20997,-4.56772 0.83137,-4.15685 4.15614,-5.99365 10.50176,-5.80179 7.48332,0.22625 7.36616,0.26088 8.65007,-2.557 1.79796,-3.946094 1.39634,-7.249014 -1.53671,-12.637994 -3.23431,-5.9425 -6.19804,-7.98295 -7.7595,-5.34222 -2.18908,3.70218 -4.39907,5.9994 -5.09991,5.30121 -0.40084,-0.39933 0.27069,-3.46727 1.4923,-6.81765 1.22161,-3.35036 2.27733,-8.492833 2.34604,-11.427693 0.11312,-4.83129 -0.22541,-5.7239 -3.57838,-9.43524 -2.03683,-2.25452 -3.70332,-4.547833 -3.70332,-5.096253 0,-2.21811 4.77792,-0.81724 7.68384,2.25288 4.91995,5.197973 5.31448,6.570053 3.874,13.472833 l -1.28353,6.150713 3.48808,3.31323 c 4.59202,4.36183 8.50691,13.06074 8.45343,18.783554 -0.0593,6.34337 -2.42298,8.02968 -11.25518,8.02968 -7.26608,0 -9.96064,1.37193 -9.96064,5.07143 0,2.75155 -3.54594,5.92857 -6.61702,5.92857 -1.73156,0 -3.90683,1.32906 -6.42911,3.9281 -2.93201,3.02123 -4.86908,4.0866 -8.39048,4.61467 -2.51812,0.37761 -5.5683,0.4277 -6.77818,0.11131 -2.4554,-0.6421 -9.2358,3.80783 -8.24493,5.4111 0.89472,1.44768 7.63491,1.0919 10.82403,-0.57134 5.633,-2.93782 10.49826,-1.20944 7.11597,2.52795 -1.40771,1.5555 -2.94231,1.85867 -8.55007,1.6891 -9.85637,-0.29805 -12.30123,3.03503 -3.88799,5.30048 4.17105,1.12314 5.51873,4.17566 2.37599,5.38164 -3.06387,1.17572 -7.41821,0.66507 -7.41821,-0.86996 0,-7.49532 -27.03117,-6.42067 -42.22732,1.6788 -5.79043,3.08626 -12.68574,10.41443 -12.74789,13.54815 -0.027,1.36346 -0.88219,1.38484 -8.87815,0.22188 z m 63.90302,-32.49756 c 1.62269,-0.83912 2.95034,-1.68737 2.95034,-1.88499 0,-0.19762 -1.20001,-1.14559 -2.66669,-2.1066 -2.54803,-1.66953 -2.72603,-1.66614 -4,0.0761 -1.58998,2.17442 -1.76027,5.44115 -0.28365,5.44115 0.57731,0 2.37731,-0.68656 4,-1.52568 z m 5.95034,-6.97432 c 1.42138,-1.71266 8.64636,-2.06092 9.18574,-0.44277 0.61553,1.84657 3.80601,-0.17616 4.47365,-2.83625 1.00742,-4.0139 -2.80055,-6.57686 -8.50149,-5.72195 -7.47031,1.12024 -8.88517,2.17111 -8.88517,6.59935 0,4.12424 1.49706,5.08885 3.72727,2.40162 z M 15.493655,162.50365 c -0.359633,-0.35963 -0.377119,-2.38463 -0.03886,-4.5 0.342173,-2.13982 0.203407,-3.84612 -0.312787,-3.84612 -1.507037,0 -3.327808,2.26569 -3.327808,4.14098 0,2.17036 -1.333166,3.05214 -3.4097577,2.25528 -2.040615,-0.78306 -2.052418,-3.00493 -0.02011,-3.7848 0.941801,-0.3614 1.442025,-1.50471 1.25,-2.85699 -0.282445,-1.98904 -0.82327,-2.22259 -4.593549,-1.98369 -3.190902,0.20218 -4.43104902,-0.14002 -4.89571702,-1.35093 -0.741167,-1.93145 1.48247302,-3.58765 3.83497202,-2.85634 3.024137,0.94009 3.288364,-1.78961 0.396437,-4.09555 -2.9978,-2.39036 -3.188501,-5.72368 -0.358634,-6.26866 1.052417,-0.20268 2.27262,0.82102 3.264197,2.73851 2.549821,4.93081 3.9744547,4.05598 3.5627527,-2.18781 -0.153969,-2.33507 0.207255,-2.75 2.394038,-2.75 2.428621,0 3.026106,0.84212 2.65261,3.73869 -0.08785,0.68127 0.34581,2.18328 0.963683,3.33778 0.830668,1.55212 1.735356,1.94551 3.47184,1.50968 1.29164,-0.32418 3.486268,-0.15682 4.876951,0.37192 2.128836,0.80938 2.835587,0.57096 4.471173,-1.50835 2.348629,-2.9858 8.236504,-5.62559 10.048998,-4.50541 1.060743,0.65557 1.003215,1.84278 -0.307824,6.35259 -1.957714,6.73432 -5.86488,9.7031 -12.770094,9.7031 -5.29148,0 -6.831966,1.28525 -6.831966,5.7 0,2.53333 -0.425926,3.3 -1.833333,3.3 -1.008334,0 -2.127579,-0.29425 -2.487212,-0.65388 z m 79.930221,-14.43851 c -2.5697,-2.02132 -5.60968,-7.71724 -5.60968,-10.51068 0,-2.18733 4.70338,-2.8213 7.4721,-1.00717 3.992774,2.61616 4.527904,2.04242 4.527904,-4.85458 0,-6.88356 -1.1544,-8.53518 -5.965644,-8.53518 -2.52217,0 -3.88678,-2.85514 -1.93975,-4.05847 0.85678,-0.52952 2.23546,-0.30006 3.61053,0.60093 2.771494,1.81595 4.294864,1.85896 4.294864,0.12126 0,-0.73495 -2.700004,-2.50126 -6.000004,-3.92514 -7.53751,-3.25227 -7.6585,-4.76979 -0.93363,-11.71032 5.770894,-5.955954 7.864444,-6.014364 3.10068,-0.0865 -3.46091,4.30664 -3.89224,6.21151 -1.79973,7.94814 1.03468,0.8587 1.64802,0.79655 2.52113,-0.25548 0.63459,-0.76464 3.727484,-1.60368 6.873074,-1.86454 4.6745,-0.38765 6.22337,-0.10158 8.47887,1.56598 3.43171,2.53717 3.57607,3.92507 0.27784,2.67108 -2.01075,-0.76449 -2.67502,-0.58247 -3.5,0.95901 -0.56003,1.04641 -1.01823,2.38215 -1.01823,2.96831 0,1.63715 3.98673,1.2639 4.63837,-0.43426 0.74783,-1.9488 4.25561,-1.93987 5.00489,0.0127 0.31927,0.83201 -0.003,2.21631 -0.71708,3.07622 -1.07052,1.2899 -1.04635,1.72668 0.13812,2.4961 6.2516,4.06102 12.30023,1.75042 22.73579,-8.68514 7.79875,-7.79872 12.19991,-10.33654 12.19991,-7.03474 0,2.34224 -3.75266,6.27763 -9.74182,10.21618 -3.167,2.08266 -7.73539,5.27886 -10.15198,7.10267 -3.51239,2.6508 -5.32786,3.31601 -9.05,3.31601 -2.56091,0 -5.14315,0.48695 -5.7383,1.0821 -0.77614,0.77614 -1.64349,0.73151 -3.06754,-0.15782 -3.91615,-2.44567 -5.48005,-0.54249 -5.20444,6.33353 0.36882,9.20148 0.15345,10.54282 -2.04592,12.74219 -2.76786,2.76786 -9.815934,2.71923 -13.390324,-0.0924 z m 12.837764,-32.63123 c 0.41447,-1.08011 0.01,-2.20015 -1.08414,-3 -2.27288,-1.66196 -3.3633,-1.61598 -3.3633,0.14183 0,4.21633 3.14955,6.2404 4.44744,2.85817 z m 16.55256,1.72362 c -1.16887,-0.75538 -0.89294,-0.97275 1.25,-0.98469 1.5125,-0.008 2.75,0.43469 2.75,0.98469 0,1.26441 -2.04347,1.26441 -4,0 z m -9.5,-8.63338 c -2.75,-0.82412 -6.8,-1.84487 -9,-2.26834 -3.08001,-0.59285 -3.59337,-0.94888 -2.23204,-1.54799 0.98928,-0.43536 3.05479,-0.24503 4.68964,0.43215 1.60693,0.66561 3.33255,0.95627 3.83472,0.64591 0.50217,-0.31036 1.76683,0.082 2.81036,0.87188 1.04353,0.78989 4.03482,1.45047 6.64732,1.46797 2.6125,0.0175 4.75,0.4818 4.75,1.0318 0,1.42868 -5.65917,1.11699 -11.5,-0.63338 z m 25.64324,-1.25693 c -0.85112,-0.53929 -0.97792,-1.09383 -0.34024,-1.48793 1.37119,-0.84745 4.32674,0.35929 3.63224,1.48302 -0.68653,1.11083 -1.54462,1.11211 -3.292,0.005 z m 31.05803,-1.05294 c -15.8104,-4.52009 -32.0919,-16.258864 -33.57373,-24.206274 -1.09896,-5.894003 -5.62754,-7.898923 -5.62754,-2.49146 0,2.54156 -1.72175,4.64098 -3.8061,4.64098 -0.77335,0 -3.11061,-1.35 -5.1939,-3 -2.08329,-1.65 -4.49016,-3 -5.34859,-3 -2.05573,0 -3.2106,6.16809 -2.04097,10.90067 l 0.88956,3.59933 7,0.65019 c 8.84739,0.82179 13.21144,2.18383 17,5.30576 2.75654,2.271504 2.82595,2.475044 0.85534,2.508094 -1.17957,0.0198 -5.22957,-0.91868 -9,-2.085464 -8.90229,-2.75487 -8.61291,-2.70761 -17.35534,-2.83387 -6.90265,-0.0997 -7.34147,-0.22812 -5.50962,-1.61253 1.6769,-1.2673 1.99189,-2.69366 2,-9.05652 0.009,-6.72435 0.26843,-7.76188 2.3704,-9.463983 3.0117,-2.43876 5.8629,-2.41263 9.63922,0.0883 4.22495,2.798073 5.02143,2.540693 6.40252,-2.06899 1.12553,-3.75666 1.46066,-4.0445 4.36609,-3.75 2.83636,0.2875 3.21222,6.6e-4 3.80777,-2.90596 0.9766,-4.76636 3.46622,-8.001053 7.89841,-10.262193 6.4878,-3.30983 8.15416,-2.50105 3.27521,1.58965 -4.15112,3.480463 -5.50374,6.375023 -3,6.419903 1.34179,0.024 6.98931,2.79952 21.18216,10.40994 10.71204,5.743963 12.70414,5.718633 25.59999,-0.32547 9.17727,-4.30127 16.643,-6.44152 17.51996,-5.02257 1.81405,2.9352 -6.23465,8.247083 -17.90745,11.818323 -12.3779,3.78697 -20.4549,2.37527 -32.25405,-5.637373 -10.95876,-7.44195 -18.5584,-9.34673 -20.00974,-5.01526 -1.74376,5.20417 0.36741,10.334853 6.79016,16.501843 7.49764,7.19907 18.84077,13.985724 29.82897,17.846814 4.97264,1.74732 5.79506,2.28106 3.5,2.27143 -1.65,-0.007 -5.83443,-0.82292 -9.29873,-1.81334 z m -44.20127,-1.64256 -4.5,-1.38947 4.9596,0.49724 c 2.72778,0.27348 5.40528,0.94292 5.95,1.48764 1.33761,1.33761 -0.789,1.14006 -6.4096,-0.59541 z m -9,-2.41419 -3.5,-0.73672 3.19098,-0.13164 c 1.75504,-0.0724 3.4691,0.31836 3.80902,0.86836 0.33992,0.55 0.47898,0.94076 0.30902,0.86836 -0.16996,-0.0724 -1.88402,-0.46317 -3.80902,-0.86836 z m 71.5,-0.54944 c 2.88433,-2.437634 16.00122,-8.450564 18.43446,-8.450564 1.13605,0 2.06554,0.43309 2.06554,0.96242 0,1.42761 -14.36648,8.076324 -18.72834,8.667354 -3.64278,0.49359 -3.70332,0.4533 -1.77166,-1.17921 z m -9.06451,-0.55495 c -1.16607,-1.886734 -1.79469,-13.895614 -0.72739,-13.895614 0.54006,0 1.78069,0.88263 2.75696,1.96139 1.45893,1.6121 1.6518,2.94774 1.08303,7.5 -0.66637,5.333484 -1.6717,6.765664 -3.1126,4.434224 z m -70.93549,-0.89561 c -0.78687,-1.273194 1.52988,-1.273194 3.5,0 1.21948,0.78809 1.09025,0.97224 -0.69098,0.98469 -1.20504,0.008 -2.4691,-0.43469 -2.80902,-0.98469 z m 58.34612,-8.464754 c -7.6708,-5.62909 -7.92894,-7.99252 -0.51475,-4.71287 4.1596,1.83999 6.66863,4.51579 6.66863,7.11188 0,1.7043 -1.19945,1.23671 -6.15388,-2.39901 z m 2.43104,-23.863323 c -6.61702,-2.30951 -10.73768,-5.11778 -9.78094,-6.66582 0.31973,-0.51733 2.02638,-0.67142 3.79255,-0.34243 4.33405,0.80733 16.82193,7.3482 16.13897,8.45324 -0.81158,1.31318 -3.23754,0.96783 -10.15058,-1.44499 z m 5.63641,-8.627653 c -3.23984,-0.98183 -7.91357,-4.00014 -7.91357,-5.11061 0,-0.45997 3.72055,-0.57375 8.26788,-0.25284 10.38234,0.7327 10.90107,0.23817 11.52424,-10.986429 0.45099,-8.12337 1.42694,-11.6944 3.19606,-11.6944 2.88975,0 4.11186,18.972089 1.5422,23.941249 -2.25933,4.36906 -9.68701,6.203113 -16.61681,4.10303 z m 28.44761,-2.54544 c -0.31683,-0.82564 0.22123,-4.75452 1.19568,-8.73085 1.20887,-4.932909 1.76106,-11.028489 1.73815,-19.187439 l -0.0336,-11.95775 -3.07743,-2.749677 c -4.54353,-4.0596487 -9.15762,-5.0840307 -24.61596,-5.4650397 -10.0776,-0.248387 -14.31047,-0.721919 -15.30019,-1.711635 -1.15766,-1.157664 -1.10528,-1.585889 0.34037,-2.782346 1.31259,-1.086334 4.43686,-1.33988 13.47928,-1.093895 12.44782,0.338623 22.47469,2.568645 26.03445,5.790176 1.23317,1.116005 3.94177,1.8320517 7.63134,2.0174207 3.14581,0.15805 6.77663,0.853039 8.06848,1.54442 5.1885,2.776797 6.91519,10.893593 4.73249,22.246376 -1.6243,8.44842 -4.23547,12.570439 -7.97859,12.595059 -4.66281,0.0307 -6.57565,1.15949 -6.57565,3.88047 0,2.82799 -2.46112,7.10587 -4.08809,7.10587 -0.53607,0 -1.2339,-0.67552 -1.55073,-1.50116 z m 13.98141,-15.984279 c 1.58712,-1.58712 3.65741,-9.768 3.65741,-14.45249 0,-2.431818 -0.48322,-2.930136 -3.36576,-3.470903 -6.09931,-1.144238 -6.63424,-0.390403 -6.63424,9.349163 0,4.79949 0.3,9.02634 0.66667,9.39301 1.15491,1.15492 4.13162,0.72551 5.67592,-0.81878 z m 2.38145,-22.90526 c 1.78885,-1.788854 -4.84153,-5.047606 -8.43501,-4.145702 -2.73025,0.68525 -3.11254,4.153925 -0.53903,4.890918 1.90568,0.545743 8.20629,0.02253 8.97404,-0.745216 z M 120.41957,54.62004 c -2.86105,-2.86105 -1.96565,-5.39676 2.64463,-7.48945 4.42794,-2.009909 12.22104,-2.637949 13.19423,-1.06331 1.10125,1.78187 -0.62714,3.87138 -5.25238,6.34979 -6.83217,3.66098 -8.73293,4.05652 -10.58648,2.20297 z m 29.29704,-12.212519 c -3.78499,-6.18425 -5.00395,-10.37633 -5.20825,-17.91149 -0.17207,-6.346907 0.0816,-7.455932 2.23015,-9.750002 2.19975,-2.348731 3.13441,-2.588503 10.09023,-2.588503 9.84485,0 23.85139,4.404389 28.3671,8.920099 3.92419,3.924196 2.72106,4.937436 -3.16741,2.667504 -13.65064,-5.262161 -18.14446,-6.547147 -22.96423,-6.566511 -9.43179,-0.03789 -11.15124,4.464679 -7.27354,19.046533 1.08706,4.08781 1.98706,7.99487 2,8.68237 0.0445,2.364709 -1.78305,1.243239 -4.07405,-2.5 z m -44.29707,-10.54931 c -1.18217,-0.86442 -1.66452,-2.28693 -1.44113,-4.25 0.29243,-2.56966 0.87428,-3.0637 4.50583,-3.825899 5.68049,-1.19223 14.75769,0.07118 17.55404,2.443269 2.15733,1.83001 2.1831,2.00272 0.49468,3.31436 -0.97968,0.76107 -5.16056,1.88637 -9.29085,2.50067 -9.40619,1.399 -9.66535,1.395 -11.82257,-0.1824 z M 128.82719,8.8924503 c -5.66079,-2.313272 -7.21212,-4.585137 -4.97312,-7.282963 3.58841,-4.323769 15.41375,0.828082 14.76363,6.43195 -0.40142,3.4601517 -2.87876,3.6754877 -9.79051,0.851013 z"
     style="fill:#000000"
     inkscape:connector-curvature="0" />
</svg>
